<svg width="216" height="17" viewBox="0 0 216 17" fill="none" xmlns="http://www.w3.org/2000/svg">
<path d="M13.3594 8.99805C13.3594 11.0684 12.7637 12.7871 11.5723 14.1543C10.3874 15.5215 8.85091 16.2051 6.96289 16.2051C5.12695 16.2051 3.63607 15.5215 2.49023 14.1543C1.3444 12.7871 0.771484 11.0684 0.771484 8.99805V8.79297C0.771484 6.72917 1.3444 5.01042 2.49023 3.63672C3.63607 2.26302 5.12695 1.57617 6.96289 1.57617C8.85091 1.57617 10.3874 2.26302 11.5723 3.63672C12.7637 5.01042 13.3594 6.72917 13.3594 8.79297V8.99805ZM11.4355 8.77344C11.4355 7.11979 11.0384 5.77214 10.2441 4.73047C9.45638 3.68229 8.36263 3.1582 6.96289 3.1582C5.62174 3.1582 4.57357 3.68229 3.81836 4.73047C3.06966 5.77865 2.69531 7.1263 2.69531 8.77344V8.99805C2.69531 10.6647 3.06966 12.0221 3.81836 13.0703C4.57357 14.112 5.62174 14.6328 6.96289 14.6328C8.38216 14.6328 9.48242 14.112 10.2637 13.0703C11.0449 12.0286 11.4355 10.6712 11.4355 8.99805V8.77344ZM14.9902 6.67383V5.43359H18.3008L18.4863 6.9668C18.7858 6.42643 19.1536 6.00326 19.5898 5.69727C20.0326 5.39128 20.5371 5.23828 21.1035 5.23828C21.2533 5.23828 21.4062 5.2513 21.5625 5.27734C21.7253 5.29688 21.849 5.31966 21.9336 5.3457L21.6797 7.13281L20.5859 7.07422C20.0781 7.07422 19.6517 7.19466 19.3066 7.43555C18.9616 7.66992 18.6947 8.00195 18.5059 8.43164V14.4961L20.0977 14.7695V16H14.9902V14.7695L16.582 14.4961V6.94727L14.9902 6.67383ZM22.9883 14.7695L24.5801 14.4961V6.94727L22.9883 6.67383V5.43359H26.2988L26.4355 7.00586C26.7871 6.44596 27.2266 6.01302 27.7539 5.70703C28.2878 5.39453 28.8932 5.23828 29.5703 5.23828C30.7096 5.23828 31.5918 5.57357 32.2168 6.24414C32.8418 6.9082 33.1543 7.93685 33.1543 9.33008V14.4961L34.7461 14.7695V16H29.6387V14.7695L31.2305 14.4961V9.36914C31.2305 8.43815 31.0449 7.77734 30.6738 7.38672C30.3092 6.99609 29.7493 6.80078 28.9941 6.80078C28.4408 6.80078 27.9492 6.93424 27.5195 7.20117C27.0964 7.4681 26.7578 7.83268 26.5039 8.29492V14.4961L28.0957 14.7695V16H22.9883V14.7695ZM43.0371 16C42.9785 15.7135 42.9329 15.4564 42.9004 15.2285C42.8678 15.0007 42.8451 14.7728 42.832 14.5449C42.4609 15.0202 41.9954 15.4173 41.4355 15.7363C40.8822 16.0488 40.2897 16.2051 39.6582 16.2051C38.5579 16.2051 37.7214 15.9382 37.1484 15.4043C36.5755 14.8639 36.2891 14.1055 36.2891 13.1289C36.2891 12.1263 36.6927 11.3548 37.5 10.8145C38.3138 10.2676 39.4271 9.99414 40.8398 9.99414H42.8223V8.76367C42.8223 8.14518 42.627 7.6569 42.2363 7.29883C41.8457 6.93424 41.3021 6.75195 40.6055 6.75195C40.1237 6.75195 39.6973 6.8138 39.3262 6.9375C38.9616 7.0612 38.6654 7.23047 38.4375 7.44531L38.2324 8.55859H36.748V6.50781C37.2298 6.1237 37.8125 5.81771 38.4961 5.58984C39.1797 5.35547 39.9219 5.23828 40.7227 5.23828C41.9206 5.23828 42.8906 5.54427 43.6328 6.15625C44.375 6.76823 44.7461 7.64388 44.7461 8.7832V13.8711C44.7461 14.0078 44.7461 14.1413 44.7461 14.2715C44.7526 14.4017 44.7624 14.5319 44.7754 14.6621L45.5566 14.7695V16H43.0371ZM39.9414 14.5938C40.5794 14.5938 41.1621 14.4408 41.6895 14.1348C42.2168 13.8288 42.5944 13.4609 42.8223 13.0312V11.293H40.7715C39.9837 11.293 39.3587 11.4753 38.8965 11.8398C38.4408 12.2044 38.2129 12.6471 38.2129 13.168C38.2129 13.6302 38.3561 13.985 38.6426 14.2324C38.929 14.4733 39.362 14.5938 39.9414 14.5938ZM46.7773 14.7695L48.3691 14.4961V6.94727L46.7773 6.67383V5.43359H50.0977L50.2246 6.81055C50.5632 6.30924 50.9993 5.92188 51.5332 5.64844C52.0671 5.375 52.6855 5.23828 53.3887 5.23828C54.0918 5.23828 54.694 5.40104 55.1953 5.72656C55.7031 6.05208 56.084 6.54036 56.3379 7.19141C56.6699 6.59245 57.1094 6.11719 57.6562 5.76562C58.2031 5.41406 58.8411 5.23828 59.5703 5.23828C60.651 5.23828 61.5039 5.60938 62.1289 6.35156C62.7539 7.08724 63.0664 8.19727 63.0664 9.68164V14.4961L64.6582 14.7695V16H59.541V14.7695L61.1328 14.4961V9.66211C61.1328 8.62044 60.9538 7.88477 60.5957 7.45508C60.2376 7.01888 59.707 6.80078 59.0039 6.80078C58.3333 6.80078 57.793 7.03841 57.3828 7.51367C56.9792 7.98242 56.7448 8.57487 56.6797 9.29102V14.4961L58.2715 14.7695V16H53.1641V14.7695L54.7559 14.4961V9.66211C54.7559 8.67253 54.5703 7.94987 54.1992 7.49414C53.8346 7.0319 53.304 6.80078 52.6074 6.80078C52.0215 6.80078 51.5397 6.92122 51.1621 7.16211C50.7845 7.40299 50.4948 7.74154 50.293 8.17773V14.4961L51.8848 14.7695V16H46.7773V14.7695ZM70.791 16.2051C69.3197 16.2051 68.1478 15.7168 67.2754 14.7402C66.4095 13.7572 65.9766 12.4844 65.9766 10.9219V10.4922C65.9766 8.98828 66.4225 7.73828 67.3145 6.74219C68.2129 5.73958 69.2741 5.23828 70.498 5.23828C71.9173 5.23828 72.9915 5.66797 73.7207 6.52734C74.4564 7.38672 74.8242 8.53255 74.8242 9.96484V11.166H67.9688L67.9395 11.2148C67.959 12.2305 68.2161 13.0671 68.7109 13.7246C69.2057 14.3757 69.8991 14.7012 70.791 14.7012C71.4421 14.7012 72.0117 14.61 72.5 14.4277C72.9948 14.2389 73.4212 13.9818 73.7793 13.6562L74.5312 14.9062C74.1536 15.2708 73.6523 15.5801 73.0273 15.834C72.4089 16.0814 71.6634 16.2051 70.791 16.2051ZM70.498 6.75195C69.8535 6.75195 69.3034 7.02539 68.8477 7.57227C68.3919 8.11263 68.112 8.79297 68.0078 9.61328L68.0273 9.66211H72.9004V9.4082C72.9004 8.65299 72.6986 8.02148 72.2949 7.51367C71.8913 7.00586 71.2923 6.75195 70.498 6.75195ZM76.4453 14.7695L78.0371 14.4961V6.94727L76.4453 6.67383V5.43359H79.7559L79.8926 7.00586C80.2441 6.44596 80.6836 6.01302 81.2109 5.70703C81.7448 5.39453 82.3503 5.23828 83.0273 5.23828C84.1667 5.23828 85.0488 5.57357 85.6738 6.24414C86.2988 6.9082 86.6113 7.93685 86.6113 9.33008V14.4961L88.2031 14.7695V16H83.0957V14.7695L84.6875 14.4961V9.36914C84.6875 8.43815 84.502 7.77734 84.1309 7.38672C83.7663 6.99609 83.2064 6.80078 82.4512 6.80078C81.8978 6.80078 81.4062 6.93424 80.9766 7.20117C80.5534 7.4681 80.2148 7.83268 79.9609 8.29492V14.4961L81.5527 14.7695V16H76.4453V14.7695ZM92.959 2.88477V5.43359H94.9609V6.85938H92.959V13.2754C92.959 13.7702 93.0599 14.1185 93.2617 14.3203C93.4701 14.5221 93.7435 14.623 94.082 14.623C94.2513 14.623 94.4401 14.61 94.6484 14.584C94.8633 14.5514 95.0423 14.5189 95.1855 14.4863L95.4492 15.8047C95.2669 15.9219 95 16.0163 94.6484 16.0879C94.2969 16.166 93.9453 16.2051 93.5938 16.2051C92.8125 16.2051 92.1908 15.9707 91.7285 15.502C91.2663 15.0267 91.0352 14.2845 91.0352 13.2754V6.85938H89.3652V5.43359H91.0352V2.88477H92.959ZM103.818 16C103.76 15.7135 103.714 15.4564 103.682 15.2285C103.649 15.0007 103.626 14.7728 103.613 14.5449C103.242 15.0202 102.777 15.4173 102.217 15.7363C101.663 16.0488 101.071 16.2051 100.439 16.2051C99.3392 16.2051 98.5026 15.9382 97.9297 15.4043C97.3568 14.8639 97.0703 14.1055 97.0703 13.1289C97.0703 12.1263 97.474 11.3548 98.2812 10.8145C99.0951 10.2676 100.208 9.99414 101.621 9.99414H103.604V8.76367C103.604 8.14518 103.408 7.6569 103.018 7.29883C102.627 6.93424 102.083 6.75195 101.387 6.75195C100.905 6.75195 100.479 6.8138 100.107 6.9375C99.7428 7.0612 99.4466 7.23047 99.2188 7.44531L99.0137 8.55859H97.5293V6.50781C98.0111 6.1237 98.5938 5.81771 99.2773 5.58984C99.9609 5.35547 100.703 5.23828 101.504 5.23828C102.702 5.23828 103.672 5.54427 104.414 6.15625C105.156 6.76823 105.527 7.64388 105.527 8.7832V13.8711C105.527 14.0078 105.527 14.1413 105.527 14.2715C105.534 14.4017 105.544 14.5319 105.557 14.6621L106.338 14.7695V16H103.818ZM100.723 14.5938C101.361 14.5938 101.943 14.4408 102.471 14.1348C102.998 13.8288 103.376 13.4609 103.604 13.0312V11.293H101.553C100.765 11.293 100.14 11.4753 99.6777 11.8398C99.222 12.2044 98.9941 12.6471 98.9941 13.168C98.9941 13.6302 99.1374 13.985 99.4238 14.2324C99.7103 14.4733 100.143 14.5938 100.723 14.5938ZM107.676 2.00586V0.765625H111.191V14.4961L112.783 14.7695V16H107.676V14.7695L109.268 14.4961V2.2793L107.676 2.00586ZM129.346 5.98047H127.891L127.529 3.94922C127.236 3.70182 126.846 3.49674 126.357 3.33398C125.869 3.17122 125.303 3.08984 124.658 3.08984C123.636 3.08984 122.852 3.30794 122.305 3.74414C121.758 4.17383 121.484 4.73698 121.484 5.43359C121.484 6.05208 121.761 6.56966 122.314 6.98633C122.874 7.39648 123.776 7.75781 125.02 8.07031C126.517 8.44141 127.653 8.98828 128.428 9.71094C129.209 10.4336 129.6 11.3288 129.6 12.3965C129.6 13.5423 129.131 14.4635 128.193 15.1602C127.262 15.8568 126.042 16.2051 124.531 16.2051C123.438 16.2051 122.464 16.026 121.611 15.668C120.765 15.3099 120.075 14.8411 119.541 14.2617V11.6152H120.986L121.357 13.6562C121.729 13.9622 122.171 14.2129 122.686 14.4082C123.2 14.6035 123.815 14.7012 124.531 14.7012C125.501 14.7012 126.266 14.4961 126.826 14.0859C127.393 13.6758 127.676 13.1191 127.676 12.416C127.676 11.765 127.432 11.2214 126.943 10.7852C126.455 10.3424 125.592 9.97135 124.355 9.67188C122.852 9.3138 121.676 8.78646 120.83 8.08984C119.984 7.39323 119.561 6.51758 119.561 5.46289C119.561 4.34961 120.033 3.42513 120.977 2.68945C121.921 1.94727 123.148 1.57617 124.658 1.57617C125.654 1.57617 126.559 1.7487 127.373 2.09375C128.193 2.43229 128.851 2.8457 129.346 3.33398V5.98047ZM138.975 14.4375C138.643 15.0039 138.213 15.4401 137.686 15.7461C137.165 16.0521 136.562 16.2051 135.879 16.2051C134.733 16.2051 133.838 15.8372 133.193 15.1016C132.549 14.3659 132.227 13.2201 132.227 11.6641V6.94727L131.016 6.67383V5.43359H132.227H134.15V11.6836C134.15 12.8099 134.316 13.5846 134.648 14.0078C134.98 14.431 135.498 14.6426 136.201 14.6426C136.885 14.6426 137.448 14.5059 137.891 14.2324C138.34 13.9525 138.678 13.5586 138.906 13.0508V6.94727L137.49 6.67383V5.43359H138.906H140.83V14.4961L142.041 14.7695V16H139.102L138.975 14.4375ZM143.281 14.7695L144.873 14.4961V6.94727L143.281 6.67383V5.43359H146.592L146.729 7.00586C147.08 6.44596 147.52 6.01302 148.047 5.70703C148.581 5.39453 149.186 5.23828 149.863 5.23828C151.003 5.23828 151.885 5.57357 152.51 6.24414C153.135 6.9082 153.447 7.93685 153.447 9.33008V14.4961L155.039 14.7695V16H149.932V14.7695L151.523 14.4961V9.36914C151.523 8.43815 151.338 7.77734 150.967 7.38672C150.602 6.99609 150.042 6.80078 149.287 6.80078C148.734 6.80078 148.242 6.93424 147.812 7.20117C147.389 7.4681 147.051 7.83268 146.797 8.29492V14.4961L148.389 14.7695V16H143.281V14.7695ZM162.9 14.7695L164.492 14.4961V2.52344C164.115 2.43229 163.727 2.36068 163.33 2.30859C162.933 2.25 162.533 2.2207 162.129 2.2207C161.23 2.2207 160.579 2.42253 160.176 2.82617C159.779 3.22982 159.58 3.84505 159.58 4.67188V5.43359H162.031V6.85938H159.58V14.4961L161.172 14.7695V16H156.064V14.7695L157.656 14.4961V6.85938H156.25V5.43359H157.656V4.67188C157.656 3.36328 158.037 2.35091 158.799 1.63477C159.567 0.91862 160.628 0.560547 161.982 0.560547C162.542 0.560547 163.096 0.61263 163.643 0.716797C164.189 0.820964 164.824 0.970703 165.547 1.16602H166.416V14.4961L168.008 14.7695V16H162.9V14.7695ZM169.629 10.6191C169.629 9.05664 170.052 7.77083 170.898 6.76172C171.745 5.74609 172.894 5.23828 174.346 5.23828C175.804 5.23828 176.956 5.74284 177.803 6.75195C178.656 7.76107 179.082 9.05013 179.082 10.6191V10.834C179.082 12.4095 178.659 13.6986 177.812 14.7012C176.966 15.7038 175.817 16.2051 174.365 16.2051C172.9 16.2051 171.745 15.7038 170.898 14.7012C170.052 13.6921 169.629 12.403 169.629 10.834V10.6191ZM171.553 10.834C171.553 11.9538 171.787 12.8783 172.256 13.6074C172.731 14.3366 173.434 14.7012 174.365 14.7012C175.277 14.7012 175.97 14.3366 176.445 13.6074C176.921 12.8783 177.158 11.9538 177.158 10.834V10.6191C177.158 9.51237 176.921 8.59115 176.445 7.85547C175.97 7.11979 175.27 6.75195 174.346 6.75195C173.421 6.75195 172.725 7.11979 172.256 7.85547C171.787 8.59115 171.553 9.51237 171.553 10.6191V10.834ZM184.6 6.67383L183.389 6.88867L184.766 12.1523L184.99 13.4316H185.049L185.322 12.1523L187.432 5.43359H188.975L191.094 12.1523L191.396 13.5781H191.455L191.738 12.1523L193.037 6.88867L191.807 6.67383V5.43359H195.83V6.67383L194.912 6.81055L192.246 16H190.693L188.643 9.56445L188.203 7.78711L188.145 7.79688L187.734 9.56445L185.723 16H184.17L181.504 6.81055L180.576 6.67383V5.43359H184.6V6.67383ZM202.217 16.2051C200.745 16.2051 199.574 15.7168 198.701 14.7402C197.835 13.7572 197.402 12.4844 197.402 10.9219V10.4922C197.402 8.98828 197.848 7.73828 198.74 6.74219C199.639 5.73958 200.7 5.23828 201.924 5.23828C203.343 5.23828 204.417 5.66797 205.146 6.52734C205.882 7.38672 206.25 8.53255 206.25 9.96484V11.166H199.395L199.365 11.2148C199.385 12.2305 199.642 13.0671 200.137 13.7246C200.632 14.3757 201.325 14.7012 202.217 14.7012C202.868 14.7012 203.438 14.61 203.926 14.4277C204.421 14.2389 204.847 13.9818 205.205 13.6562L205.957 14.9062C205.579 15.2708 205.078 15.5801 204.453 15.834C203.835 16.0814 203.089 16.2051 202.217 16.2051ZM201.924 6.75195C201.279 6.75195 200.729 7.02539 200.273 7.57227C199.818 8.11263 199.538 8.79297 199.434 9.61328L199.453 9.66211H204.326V9.4082C204.326 8.65299 204.124 8.02148 203.721 7.51367C203.317 7.00586 202.718 6.75195 201.924 6.75195ZM208.154 6.67383V5.43359H211.465L211.65 6.9668C211.95 6.42643 212.318 6.00326 212.754 5.69727C213.197 5.39128 213.701 5.23828 214.268 5.23828C214.417 5.23828 214.57 5.2513 214.727 5.27734C214.889 5.29688 215.013 5.31966 215.098 5.3457L214.844 7.13281L213.75 7.07422C213.242 7.07422 212.816 7.19466 212.471 7.43555C212.126 7.66992 211.859 8.00195 211.67 8.43164V14.4961L213.262 14.7695V16H208.154V14.7695L209.746 14.4961V6.94727L208.154 6.67383Z" fill="#324950"/>
</svg>
